<?xml version="1.0" encoding="UTF-8" standalone="no"?>
<!-- Created with Inkscape (http://www.inkscape.org/) -->

<svg
   width="60"
   height="60"
   viewBox="0 0 15.875 15.875"
   version="1.1"
   id="svg1"
   xml:space="preserve"
   xmlns="http://www.w3.org/2000/svg"
   xmlns:svg="http://www.w3.org/2000/svg"><defs
     id="defs1" /><circle
     style="opacity:0.895973;fill:#ffffff;fill-opacity:1;stroke:#000000;stroke-width:0;stroke-dasharray:none;stroke-opacity:1;paint-order:markers fill stroke"
     id="path76"
     cx="7.9494023"
     cy="7.9274459"
     r="7.916883" /><path
     style="opacity:0.895973;fill:#000000;fill-opacity:1;stroke:#000000;stroke-width:0.490365;stroke-dasharray:none;stroke-opacity:1;paint-order:markers stroke fill"
     d="M 10.171838,1.3211237 5.8069738,1.3709822 A 0.14654268,0.14654268 144.36835 0 0 5.6704177,1.4688609 L 4.4189554,5.0243338 a 0.04307149,0.04307149 54.637207 0 0 0.040716,0.057372 L 11.78121,5.0667884 A 0.1913424,0.1913424 48.919275 0 1 11.9711,5.2846123 L 10.535597,15.556912 A 0.20002914,0.20002914 138.90499 0 1 10.338,15.729256 l -4.736215,0.01201 A 0.17885186,0.17885186 41.077711 0 1 5.4240919,15.586378 L 4.3162623,7.3919094 c 0.04725,-0.1886341 0.24703,-0.1972215 0.3294258,-0.059174 L 5.7291967,15.36005 a 0.05194976,0.05194976 41.05796 0 0 0.051661,0.045 l 4.3953459,-0.0151 a 0.05252561,0.05252561 138.86115 0 0 0.05184,-0.04529 l 1.372358,-9.8657755 a 0.07781938,0.07781938 48.884095 0 0 -0.07728,-0.088541 L 4.1802691,5.4096936 A 0.17309087,0.17309087 54.636767 0 1 4.0165744,5.1790394 L 5.4227324,1.1914882 A 0.2162896,0.2162896 144.47624 0 1 5.6249289,1.0471363 l 4.7443431,-0.039089 a 0.19019378,0.19019378 34.662342 0 1 0.180059,0.1245036 l 0.736773,2.0021382 c 0.008,0.1738334 -0.178382,0.2467644 -0.313935,0.1274136 L 10.317333,1.4225303 A 0.15258812,0.15258812 34.875627 0 0 10.171838,1.3211237 Z"
     id="path75"
     transform="matrix(0.75287438,0,0,0.75791226,1.9218007,1.5902467)" /><g
     id="layer3" /></svg>
