<?xml version="1.0" encoding="UTF-8" standalone="no"?>
<!DOCTYPE svg PUBLIC "-//W3C//DTD SVG 1.1//EN" "http://www.w3.org/Graphics/SVG/1.1/DTD/svg11.dtd">
<svg xmlns="http://www.w3.org/2000/svg" version="1.1" viewBox="0.00 0.00 704.00 600.00">
<path fill="#fffeff" d="
  M 537.47 221.69
  L 234.87 221.47
  Q 234.00 221.47 233.77 220.63
  Q 231.98 214.29 233.59 208.03
  C 235.69 199.85 238.19 191.93 240.37 183.86
  Q 259.44 113.36 278.10 45.39
  Q 278.49 43.97 279.15 42.55
  Q 279.37 42.08 279.87 41.92
  Q 280.75 41.65 281.79 41.65
  Q 400.65 41.62 520.27 41.71
  A 2.24 2.23 -7.6 0 1 522.43 43.35
  L 542.33 116.44
  Q 542.51 117.13 541.82 117.24
  Q 540.50 117.46 539.14 117.48
  Q 526.03 117.63 512.89 117.18
  Q 511.77 117.14 511.47 116.06
  L 499.49 72.12
  Q 499.30 71.44 498.60 71.44
  L 302.11 71.44
  A 0.54 0.54 0.0 0 0 301.59 71.84
  L 269.20 190.02
  A 1.02 1.01 7.6 0 0 270.18 191.30
  Q 377.18 190.99 484.61 191.23
  C 488.12 191.24 491.67 191.61 495.24 191.64
  Q 523.08 191.90 530.28 191.69
  Q 545.90 191.23 561.75 191.54
  A 1.72 1.71 78.7 0 1 563.29 192.58
  Q 563.99 194.21 564.43 195.94
  Q 566.11 202.69 568.09 209.72
  C 569.08 213.24 569.03 215.87 568.40 219.74
  Q 543.75 371.66 517.79 531.01
  Q 515.87 542.80 514.96 547.91
  C 514.35 551.37 514.13 554.88 513.36 558.25
  Q 513.10 559.40 511.92 559.40
  Q 399.89 559.57 292.55 559.25
  Q 290.94 559.25 289.34 558.92
  Q 288.75 558.80 288.66 558.21
  L 246.21 297.53
  Q 245.93 295.75 247.72 295.75
  L 273.97 295.75
  Q 275.97 295.75 276.29 297.72
  L 313.81 528.26
  A 1.46 1.46 0.0 0 0 315.25 529.48
  L 487.10 529.48
  A 0.99 0.97 -85.1 0 0 488.06 528.66
  L 537.93 222.23
  A 0.47 0.46 4.7 0 0 537.47 221.69
  Z"
/>
<path fill="#fffeff" d="
  M 409.40 263.76
  Q 408.44 263.49 408.12 264.28
  Q 407.02 267.01 406.17 269.55
  C 405.72 270.87 404.50 271.99 403.11 272.27
  Q 398.74 273.14 394.40 273.92
  C 391.69 274.40 389.84 276.20 387.22 273.67
  Q 386.83 273.29 386.83 272.74
  L 386.96 258.45
  A 0.43 0.43 0.0 0 1 387.39 258.02
  L 415.73 257.87
  A 0.74 0.73 89.2 0 1 416.47 258.60
  L 416.52 270.76
  Q 416.52 271.85 415.48 271.53
  L 413.08 270.78
  Q 412.53 270.61 412.02 270.88
  Q 410.60 271.60 409.12 271.80
  Q 408.48 271.89 408.61 271.26
  L 410.00 264.74
  A 0.84 0.84 0.0 0 0 409.40 263.76
  Z"
/>
<path fill="#fffeff" d="
  M 422.75 280.19
  Q 419.71 280.17 415.50 281.83
  Q 413.96 282.43 411.87 281.67
  A 0.71 0.69 -76.3 0 1 411.42 280.91
  L 411.47 280.54
  Q 411.52 280.22 411.83 280.32
  Q 414.02 281.04 415.76 279.57
  Q 416.19 279.21 416.73 279.29
  Q 418.33 279.53 419.27 278.15
  A 0.34 0.34 0.0 0 0 419.14 277.65
  Q 417.89 277.04 416.60 277.00
  Q 416.01 276.98 415.48 276.72
  L 411.91 274.97
  A 1.31 1.29 -46.2 0 0 410.74 275.00
  L 409.56 275.65
  Q 408.78 276.07 408.41 275.27
  Q 407.90 274.16 408.88 273.54
  Q 412.12 271.52 416.14 273.04
  Q 416.54 273.19 416.88 272.93
  Q 417.25 272.65 417.13 272.17
  Q 416.96 271.52 417.36 270.99
  C 418.95 268.88 420.29 266.93 420.85 264.27
  Q 421.02 263.52 421.10 264.28
  Q 421.60 268.61 419.91 270.93
  C 418.58 272.75 418.55 275.29 420.02 277.00
  Q 420.43 277.48 421.03 277.29
  Q 429.33 274.59 435.98 275.56
  Q 442.32 276.49 447.65 276.19
  Q 450.67 276.01 454.65 273.72
  Q 455.42 273.27 454.97 274.05
  C 454.18 275.42 451.80 276.62 450.53 277.52
  A 1.18 1.17 -18.5 0 0 450.04 278.49
  L 450.08 280.41
  A 1.01 1.00 9.7 0 1 448.72 281.37
  Q 447.53 280.93 446.70 280.08
  Q 446.30 279.67 445.72 279.62
  Q 439.26 279.13 432.71 278.15
  C 431.13 277.91 429.31 277.84 427.78 278.36
  Q 426.02 278.95 424.13 279.00
  Q 423.59 279.01 423.22 279.39
  Q 422.85 279.76 422.75 280.19
  Z"
/>
<path fill="#fffeff" d="
  M 355.48 286.18
  Q 355.47 286.30 355.59 286.30
  Q 364.78 286.34 373.76 284.23
  Q 374.50 284.05 373.75 283.92
  Q 369.29 283.10 364.42 282.94
  A 1.11 1.08 75.1 0 1 363.52 282.40
  Q 362.99 281.52 363.56 281.13
  Q 364.26 280.63 365.07 280.92
  Q 367.49 281.79 368.89 279.69
  A 2.36 2.36 0.0 0 1 372.32 279.13
  Q 373.74 280.23 375.54 280.43
  Q 384.46 281.38 392.26 280.94
  Q 396.00 280.72 399.59 282.93
  Q 400.31 283.37 399.48 283.53
  L 398.70 283.68
  Q 395.77 284.25 397.99 286.24
  Q 399.23 287.36 400.21 288.58
  Q 401.41 290.07 399.70 289.22
  Q 394.97 286.85 389.97 284.50
  Q 389.74 284.39 389.66 284.63
  L 389.49 285.10
  Q 389.40 285.36 389.66 285.43
  C 393.69 286.56 396.71 289.73 400.74 291.09
  Q 402.56 291.71 404.19 293.25
  A 1.16 1.16 0.0 0 0 405.95 293.06
  Q 406.55 292.20 405.64 291.45
  Q 402.34 288.76 399.88 285.94
  A 1.15 1.15 0.0 0 1 400.79 284.03
  Q 402.85 284.11 404.29 284.72
  Q 409.44 286.92 414.73 289.12
  A 2.41 2.41 0.0 0 1 416.22 291.33
  L 416.54 392.75
  A 1.23 1.22 89.3 0 0 417.78 393.97
  Q 440.81 393.59 463.63 393.96
  A 0.81 0.81 0.0 0 1 464.43 394.77
  L 464.44 422.57
  A 1.00 1.00 0.0 0 1 463.43 423.57
  L 416.77 423.46
  Q 416.44 423.46 416.44 423.78
  L 416.64 485.76
  Q 416.65 489.51 415.02 486.14
  Q 402.39 460.04 388.11 432.69
  C 386.76 430.11 386.58 427.32 386.77 424.52
  A 0.95 0.94 1.7 0 0 385.82 423.52
  L 339.23 423.48
  A 0.61 0.61 0.0 0 1 338.62 422.89
  Q 338.31 409.20 338.81 394.70
  A 0.89 0.89 0.0 0 1 339.70 393.84
  L 386.06 393.90
  A 0.66 0.66 0.0 0 0 386.72 393.25
  C 386.85 376.92 387.04 359.34 386.56 342.11
  C 386.40 336.39 386.51 330.55 386.36 324.69
  C 386.31 322.59 386.83 320.56 386.67 318.40
  Q 386.24 312.49 386.47 306.77
  Q 386.84 297.57 386.73 287.81
  Q 386.72 286.63 387.52 285.83
  Q 388.28 285.08 387.22 285.08
  Q 383.98 285.07 380.81 284.84
  C 379.00 284.71 377.09 285.96 375.42 286.61
  A 0.85 0.83 67.8 0 0 374.96 287.73
  Q 376.03 290.16 377.47 292.82
  Q 377.50 292.88 377.45 292.92
  L 377.23 293.04
  Q 377.06 293.14 376.95 292.98
  Q 373.04 287.23 366.81 287.91
  Q 361.94 288.44 357.15 290.01
  C 354.93 290.74 352.31 288.98 349.81 288.92
  C 345.86 288.84 342.47 288.43 338.53 289.68
  Q 337.98 289.86 337.60 289.38
  A 0.59 0.59 0.0 0 1 337.82 288.47
  L 342.16 286.52
  A 3.44 3.42 85.8 0 0 344.08 284.28
  L 344.58 282.47
  Q 345.07 280.69 343.57 281.77
  Q 341.94 282.94 339.85 283.58
  A 2.08 2.08 0.0 0 0 338.73 284.42
  Q 336.15 288.29 336.11 293.01
  Q 336.09 294.43 337.38 293.84
  Q 341.70 291.89 345.91 290.11
  C 347.05 289.63 348.27 289.63 349.47 289.83
  A 0.38 0.38 0.0 0 1 349.67 290.48
  L 348.49 291.66
  A 1.19 1.19 0.0 0 0 348.85 293.60
  Q 350.76 294.43 352.80 294.47
  A 0.28 0.27 -89.0 0 1 353.07 294.76
  L 353.06 295.01
  Q 353.06 295.06 353.01 295.06
  Q 349.87 294.94 346.93 294.04
  C 345.54 293.61 343.77 293.80 342.51 294.52
  Q 339.15 296.43 335.19 297.89
  C 334.03 298.32 333.30 299.21 332.44 300.03
  A 1.24 1.23 -57.7 0 1 331.22 300.31
  Q 329.99 299.93 330.41 299.25
  Q 331.77 297.04 333.60 295.27
  Q 334.10 294.78 333.43 294.56
  Q 333.28 294.52 333.20 294.38
  Q 332.97 294.00 333.01 293.57
  Q 333.16 292.02 332.86 290.42
  Q 332.75 289.85 332.95 289.30
  L 334.17 286.07
  A 0.48 0.48 0.0 0 0 333.67 285.43
  L 331.69 285.66
  Q 331.20 285.72 330.71 285.63
  L 324.33 284.45
  Q 324.16 284.42 324.18 284.24
  L 324.21 283.97
  Q 324.21 283.92 324.26 283.93
  Q 328.51 284.36 332.72 283.86
  Q 335.06 283.58 336.89 282.34
  Q 340.08 280.18 343.66 279.34
  A 0.83 0.83 0.0 0 0 344.29 278.44
  Q 344.04 276.25 344.02 274.18
  Q 343.98 270.79 345.06 274.00
  Q 346.60 278.60 346.92 284.03
  A 1.43 1.42 9.5 0 0 347.81 285.27
  Q 350.11 286.21 352.36 285.99
  Q 352.77 285.95 353.09 285.69
  L 364.73 276.18
  Q 365.19 275.80 364.71 275.45
  Q 361.97 273.48 360.85 270.13
  Q 360.78 269.90 360.99 269.79
  L 361.00 269.79
  Q 361.06 269.76 361.09 269.82
  Q 362.63 273.01 365.47 275.17
  Q 365.92 275.50 366.46 275.37
  C 370.79 274.29 372.72 269.91 374.20 266.00
  Q 374.27 265.83 374.45 265.88
  L 374.46 265.89
  Q 374.67 265.95 374.61 266.17
  Q 373.45 270.27 372.14 274.30
  A 0.57 0.57 0.0 0 0 372.85 275.03
  Q 377.57 273.61 381.81 273.55
  C 384.30 273.51 386.21 275.23 388.78 275.31
  A 0.61 0.61 0.0 0 1 389.23 276.32
  C 387.40 278.41 385.70 275.79 383.68 275.86
  Q 377.17 276.08 368.75 277.98
  C 364.23 279.00 360.85 282.25 357.58 285.19
  Q 356.76 285.92 355.61 286.05
  Q 355.50 286.06 355.48 286.18
  Z"
/>
<path fill="#fffeff" d="
  M 402.98 273.16
  Q 404.22 272.88 404.04 274.13
  Q 403.96 274.70 403.63 275.22
  Q 402.80 276.53 401.30 276.94
  Q 397.25 278.02 392.85 279.65
  C 391.28 280.23 389.93 280.13 388.31 280.21
  Q 386.54 280.30 387.88 279.14
  L 391.45 276.06
  Q 391.93 275.64 392.54 275.51
  L 402.98 273.16
  Z"
/>
<path fill="#fffeff" d="
  M 403.89 277.67
  L 405.03 274.29
  Q 405.28 273.56 406.05 273.47
  Q 406.35 273.43 406.60 273.61
  Q 406.89 273.81 406.88 274.21
  Q 406.80 277.36 406.06 279.71
  A 0.87 0.87 0.0 0 0 406.58 280.78
  Q 409.47 281.91 412.76 283.21
  Q 414.46 283.87 416.08 283.61
  C 419.56 283.05 424.40 282.60 427.74 283.96
  Q 431.30 285.40 427.47 285.65
  Q 420.89 286.07 415.69 287.81
  Q 414.61 288.17 413.37 287.59
  Q 408.21 285.14 403.20 283.21
  C 401.06 282.39 399.25 281.08 396.94 280.91
  A 0.60 0.59 4.8 0 1 396.39 280.27
  L 396.41 279.96
  Q 396.49 279.02 397.42 279.03
  L 401.86 279.10
  A 2.12 2.10 9.7 0 0 403.89 277.67
  Z"
/>
<path fill="#fffeff" d="
  M 422.75 280.19
  Q 425.50 279.86 426.25 280.06
  Q 430.06 281.07 433.82 282.65
  C 436.17 283.63 437.37 282.41 439.61 282.29
  Q 449.43 281.76 458.49 282.28
  C 460.28 282.38 461.82 281.74 462.80 280.17
  Q 464.27 277.80 465.97 275.80
  Q 468.74 272.52 466.78 276.35
  L 463.96 281.87
  Q 463.23 283.30 464.65 284.04
  L 469.20 286.41
  A 2.42 2.42 0.0 0 1 470.41 289.23
  Q 469.89 291.04 468.55 292.40
  Q 468.17 292.78 467.65 292.68
  Q 466.37 292.44 465.53 291.48
  A 1.17 1.16 27.9 0 1 465.24 290.55
  C 465.64 287.24 460.44 286.35 458.06 285.89
  C 454.05 285.13 449.76 284.60 445.68 284.63
  C 443.82 284.65 441.55 284.78 439.86 284.06
  Q 438.79 283.61 437.61 283.30
  Q 436.84 283.10 437.20 283.80
  Q 437.43 284.26 437.96 284.45
  Q 442.52 286.07 446.32 288.42
  A 1.15 1.14 -63.5 0 1 446.78 289.82
  Q 446.39 290.77 444.88 290.32
  Q 443.86 290.02 442.91 289.64
  C 440.56 288.69 438.49 287.72 436.38 290.06
  C 434.49 292.16 432.32 293.88 429.66 294.89
  Q 429.43 294.98 429.19 294.96
  Q 428.45 294.90 429.08 294.50
  Q 433.09 291.94 435.01 287.95
  A 1.49 1.49 0.0 0 0 434.20 285.91
  Q 428.59 283.74 423.62 281.39
  Q 423.21 281.20 422.75 280.19
  Z"
/>
<path fill="#fffeff" d="
  M 415.57 278.45
  C 412.67 278.23 411.48 280.21 408.89 280.24
  A 1.28 1.28 0.0 0 1 407.77 278.31
  C 409.48 275.38 412.78 277.05 415.28 277.33
  A 0.60 0.59 5.6 0 1 415.81 277.96
  L 415.79 278.27
  Q 415.78 278.47 415.57 278.45
  Z"
/>
<path fill="#fffeff" d="
  M 348.11 279.06
  C 350.45 278.78 353.39 279.42 355.88 280.22
  Q 359.09 281.27 355.73 281.62
  Q 352.63 281.94 348.93 281.73
  Q 347.67 281.65 347.21 280.47
  Q 347.13 280.27 347.15 280.04
  Q 347.23 279.17 348.11 279.06
  Z"
/>
<path fill="#fffeff" d="
  M 448.05 285.17
  Q 448.73 284.76 449.43 285.05
  Q 449.92 285.25 450.06 285.75
  L 452.18 293.31
  A 2.42 2.33 -78.0 0 0 452.87 294.42
  L 457.38 298.40
  Q 458.42 299.32 457.24 300.05
  L 456.79 300.33
  Q 455.70 301.00 454.70 300.22
  C 451.81 298.00 447.91 297.31 447.52 292.98
  Q 447.23 289.75 447.28 286.53
  A 1.63 1.62 -15.6 0 1 448.05 285.17
  Z"
/>
<path fill="#fffeff" d="
  M 326.79 292.82
  Q 328.81 290.73 331.52 290.11
  Q 332.05 289.99 332.07 290.53
  C 332.13 292.84 330.21 293.25 329.09 294.81
  C 326.19 298.85 330.14 301.39 333.19 303.11
  Q 334.34 303.76 335.03 304.88
  Q 335.50 305.63 335.28 306.41
  A 0.49 0.49 0.0 0 1 334.56 306.70
  Q 331.33 304.77 327.69 302.46
  Q 326.32 301.60 325.08 301.52
  C 322.01 301.34 318.00 303.97 315.43 305.73
  Q 315.28 305.84 315.17 305.69
  L 315.16 305.69
  Q 315.06 305.55 315.18 305.44
  Q 317.95 302.86 320.92 300.90
  Q 323.23 299.39 324.19 296.85
  Q 325.38 293.69 321.68 290.95
  Q 321.67 290.94 321.67 290.93
  L 321.86 290.68
  A 0.24 0.24 0.0 0 1 322.20 290.63
  L 325.45 292.95
  A 1.03 1.02 -50.2 0 0 326.79 292.82
  Z"
/>
<path fill="#fffeff" d="
  M 467.62 298.78
  Q 468.58 298.89 468.87 298.15
  A 0.36 0.36 0.0 0 0 468.68 297.68
  Q 461.84 294.77 454.93 293.50
  Q 453.87 293.31 452.97 292.38
  Q 452.60 292.00 452.55 291.48
  A 0.77 0.77 0.0 0 1 453.46 290.64
  Q 456.70 291.26 460.36 291.84
  Q 462.31 292.15 464.00 292.73
  C 465.64 293.29 467.17 293.07 468.78 293.71
  Q 473.28 295.52 476.28 298.56
  A 1.58 1.57 60.5 0 0 477.77 298.98
  Q 481.18 298.13 484.81 298.19
  C 486.78 298.22 488.57 297.33 490.41 296.62
  Q 491.24 296.30 490.64 296.97
  C 488.05 299.87 483.91 300.58 480.35 301.53
  C 478.10 302.14 477.68 303.88 477.04 305.78
  Q 476.81 306.46 476.18 306.78
  Q 472.17 308.83 467.47 309.44
  A 0.86 0.86 0.0 0 1 466.69 309.12
  Q 466.05 308.31 466.14 307.26
  A 0.80 0.79 82.7 0 1 466.67 306.57
  C 469.55 305.52 475.22 303.15 471.27 299.14
  A 1.31 1.30 -46.0 0 0 469.38 299.18
  L 469.03 299.56
  Q 468.77 299.85 468.37 299.89
  Q 462.13 300.51 458.32 305.45
  C 457.16 306.94 455.45 307.39 453.64 307.07
  A 0.54 0.54 0.0 0 1 453.21 306.45
  L 453.46 304.95
  A 1.30 1.30 0.0 0 0 452.46 303.47
  Q 447.67 302.42 442.97 300.94
  Q 442.82 300.89 442.86 300.74
  L 442.86 300.73
  Q 442.90 300.54 443.10 300.57
  Q 446.99 301.25 450.80 301.77
  Q 454.38 302.26 456.60 301.19
  Q 459.54 299.76 461.90 296.94
  A 1.45 1.45 0.0 0 1 463.84 296.68
  L 465.90 298.13
  Q 466.68 298.68 467.62 298.78
  Z"
/>
<path fill="#fffeff" d="
  M 341.02 315.70
  Q 338.28 314.21 337.86 311.51
  Q 336.99 305.99 334.62 301.39
  Q 334.13 300.43 334.59 299.46
  Q 335.23 298.12 336.31 298.00
  Q 337.17 297.91 337.64 298.78
  Q 338.27 299.94 338.90 300.94
  A 1.26 1.26 0.0 0 0 340.83 301.18
  Q 341.95 300.12 343.19 299.39
  Q 344.01 298.91 343.49 299.70
  Q 342.43 301.32 340.65 302.41
  A 1.55 1.55 0.0 0 0 339.93 303.56
  Q 339.77 305.05 340.63 306.47
  Q 340.91 306.93 340.78 307.46
  Q 339.85 311.41 342.13 315.40
  Q 342.33 315.76 342.74 315.88
  Q 343.98 316.25 345.26 316.34
  Q 352.58 316.84 360.68 317.41
  Q 362.27 317.52 363.31 318.64
  A 0.55 0.55 0.0 0 1 362.95 319.56
  Q 359.25 319.86 355.64 320.52
  C 352.73 321.05 349.74 320.33 346.79 319.97
  Q 345.14 319.77 346.54 320.67
  Q 349.74 322.73 352.89 322.98
  Q 355.23 323.16 357.44 323.63
  Q 363.33 324.88 367.75 324.79
  Q 369.55 324.75 371.42 324.92
  Q 373.29 325.09 375.10 324.82
  Q 378.22 324.36 381.52 324.04
  A 0.26 0.26 0.0 0 0 381.66 323.57
  L 381.14 323.15
  A 1.16 1.15 60.0 0 0 380.26 322.91
  Q 376.67 323.49 373.50 322.10
  Q 371.45 321.21 370.36 323.01
  Q 369.29 324.78 368.45 322.88
  C 367.89 321.61 367.62 320.28 366.42 319.40
  Q 360.97 315.39 356.08 313.40
  C 351.98 311.73 347.19 311.75 342.78 310.93
  Q 341.25 310.64 341.03 309.11
  L 340.86 308.01
  Q 340.65 306.54 342.08 306.91
  C 344.78 307.61 347.55 308.98 350.10 306.92
  Q 352.24 305.20 353.28 302.33
  Q 353.29 302.29 353.32 302.32
  L 353.58 302.57
  Q 353.68 302.68 353.65 302.82
  Q 353.10 305.51 351.50 307.77
  A 0.71 0.70 -60.2 0 0 351.78 308.82
  Q 358.15 311.75 364.97 314.08
  Q 368.33 315.23 371.71 317.88
  C 373.15 319.01 374.83 319.06 376.38 319.93
  Q 379.97 321.93 383.62 323.06
  Q 387.59 324.30 383.77 325.94
  Q 378.06 328.38 372.00 329.33
  A 0.80 0.79 78.5 0 0 371.35 330.32
  Q 371.74 331.80 370.96 333.06
  Q 370.50 333.80 370.46 332.93
  L 370.36 330.56
  Q 370.33 329.99 369.78 329.85
  L 352.84 325.71
  Q 352.26 325.57 352.12 326.15
  Q 351.08 330.33 350.24 334.14
  C 349.87 335.80 350.15 337.53 349.94 339.22
  Q 349.84 340.01 349.41 339.35
  C 347.10 335.85 348.42 332.10 348.96 328.33
  A 3.68 3.67 -67.8 0 0 347.50 324.85
  Q 344.60 322.71 342.81 319.86
  Q 342.40 319.20 341.63 319.10
  Q 338.71 318.72 335.88 317.91
  Q 333.84 317.32 331.40 318.04
  Q 326.80 319.39 323.04 320.98
  Q 322.90 321.04 322.83 320.91
  L 322.82 320.90
  Q 322.76 320.79 322.87 320.71
  Q 325.94 318.58 329.46 316.83
  A 1.78 1.78 0.0 0 0 330.03 314.09
  C 328.79 312.61 326.98 311.43 325.24 310.60
  A 2.38 2.38 0.0 0 1 324.00 307.79
  Q 324.51 306.07 325.37 304.85
  Q 327.90 301.23 328.00 305.64
  Q 328.02 306.53 328.18 307.36
  Q 328.29 307.91 328.71 308.27
  C 330.55 309.88 332.24 310.93 333.81 313.02
  Q 336.07 316.01 340.94 316.00
  Q 341.58 316.00 341.02 315.70
  Z"
/>
<path fill="#fffeff" d="
  M 462.58 309.30
  Q 461.72 307.51 460.80 305.96
  C 460.20 304.94 460.52 303.46 461.60 302.93
  Q 462.14 302.65 462.57 303.08
  C 464.58 305.09 466.28 307.73 466.00 310.73
  Q 465.81 312.73 466.01 314.71
  A 0.86 0.85 8.9 0 0 466.53 315.41
  Q 470.64 317.07 474.75 317.12
  Q 475.70 317.13 474.81 317.45
  C 471.12 318.75 467.21 316.76 463.56 318.03
  Q 460.44 319.11 456.57 319.24
  Q 456.22 319.26 455.89 319.11
  Q 455.00 318.71 455.12 317.68
  A 1.95 1.93 79.3 0 1 456.14 316.17
  C 459.11 314.58 461.20 315.29 462.70 311.58
  Q 463.14 310.47 462.58 309.30
  Z"
/>
<path fill="#fffeff" d="
  M 437.15 314.61
  Q 440.35 314.81 443.35 316.29
  A 0.46 0.46 0.0 0 1 443.49 317.00
  Q 442.46 318.21 440.98 318.15
  Q 437.18 318.00 432.44 317.06
  Q 430.49 316.67 429.68 318.25
  Q 429.43 318.74 428.98 319.06
  Q 425.62 321.34 422.80 324.29
  C 421.46 325.69 419.88 326.71 418.36 327.86
  A 0.69 0.68 -24.2 0 1 417.27 327.45
  C 416.96 325.91 417.46 324.66 418.61 323.65
  Q 422.23 320.46 425.59 317.24
  Q 425.97 316.88 425.54 316.58
  Q 424.81 316.07 423.93 316.26
  Q 421.49 316.78 418.84 317.62
  Q 417.56 318.02 417.50 316.68
  L 417.48 316.14
  Q 417.43 314.87 418.58 314.37
  Q 423.78 312.13 427.84 313.99
  Q 430.20 315.07 431.82 313.05
  A 2.30 2.30 0.0 0 1 432.73 312.38
  Q 434.31 311.77 435.28 310.77
  Q 436.64 309.38 435.05 308.26
  L 428.59 303.68
  Q 427.83 303.15 428.75 303.25
  C 430.45 303.44 432.15 304.59 433.57 305.52
  C 437.94 308.40 442.58 308.92 448.12 307.74
  C 451.92 306.92 455.27 308.41 459.20 307.80
  Q 460.30 307.63 461.16 308.39
  Q 461.28 308.50 461.33 308.66
  Q 461.64 309.55 460.71 309.70
  Q 456.80 310.35 452.43 310.14
  Q 449.84 310.01 447.33 310.55
  C 443.59 311.35 440.36 312.15 437.04 314.14
  Q 436.34 314.56 437.15 314.61
  Z"
/>
<path fill="#fffeff" d="
  M 447.31 318.57
  C 445.29 320.98 442.94 324.52 439.78 325.38
  Q 436.07 326.38 432.10 327.21
  A 0.53 0.52 68.5 0 0 431.76 328.00
  C 433.59 331.08 437.23 332.86 440.19 334.74
  Q 441.16 335.35 440.03 335.16
  C 434.92 334.26 431.34 331.52 427.65 328.00
  Q 427.24 327.61 426.70 327.44
  L 422.70 326.19
  A 0.59 0.58 26.0 0 1 422.39 325.30
  C 422.96 324.48 423.98 323.97 424.98 324.17
  Q 427.97 324.78 430.23 323.93
  Q 434.03 322.51 437.72 321.32
  C 442.70 319.70 446.09 316.04 449.25 311.64
  Q 449.64 311.10 450.30 311.07
  L 452.19 310.98
  A 1.10 1.09 85.9 0 1 453.33 311.97
  C 453.61 315.03 454.71 317.61 455.29 320.55
  Q 455.84 323.34 457.40 326.05
  Q 457.56 326.32 457.30 326.49
  L 457.08 326.63
  Q 457.03 326.66 457.00 326.61
  Q 453.20 321.35 451.59 314.96
  A 0.86 0.86 0.0 0 0 450.29 314.45
  Q 449.45 314.99 449.02 316.03
  Q 448.75 316.68 449.44 316.56
  C 450.81 316.31 452.16 317.48 451.64 318.92
  Q 451.46 319.41 450.95 319.47
  Q 449.28 319.68 448.26 318.55
  Q 447.77 318.02 447.31 318.57
  Z"
/>
<path fill="#fffeff" d="
  M 372.98 315.82
  L 384.32 313.78
  A 0.91 0.91 0.0 0 1 385.38 314.82
  L 385.16 316.19
  A 0.91 0.91 0.0 0 1 384.37 316.95
  L 374.56 318.12
  A 0.91 0.91 0.0 0 1 374.13 318.07
  L 372.82 317.57
  A 0.91 0.91 0.0 0 1 372.98 315.82
  Z"
/>
</svg>
